**ABCDEFGHIJKLMNOPQRSTUVWXYZabcdefghijklmnopqrstuvwxyz**************************
**PARASOLID !"#$%&'()*+,-./:;<=>?@[\]^_`{|}~0123456789**************************
**PART1;
MC=unknown;
MC_MODEL=unknown;
MC_ID=unknown;
OS=unknown;
OS_RELEASE=unknown;
FRU=sdl_parasolid_customer_support;
APPL=parasolid_acceptance_tests;
SITE=unknown;
USER=unknown;
FORMAT=text;
GUISE=transmit;
KEY=/users/qlu/build_scripts/Ringleb/Ringleb_nat.x_t;
FILE=/users/qlu/build_scripts/Ringleb/Ringleb_nat.x_t;
DATE=unknown;
**PART2;
SCH=SCH_2500146_25001;
USFLD_SIZE=1;
**PART3;
**END_OF_HEADER*****************************************************************
T51 : TRANSMIT FILE created by modeller version 250014623 SCH_2500146_25001_1300
6189 1 12 29 CCCCCCCCCCCCCDI5 owner1040 0 CCCCCCCCCA16 index_map_offset0 0 1 dA9
 index_map82 0 A17 node_id_index_map82 0 A20 schema_embedding_map82 0 A5 child12
 0 A14 lowest_node_id0 0 1 dZ1 138 2 3 0 0 0 0 1e3 1e-8 0 0 0 1 0 1 1 4 5 6 7 8
 9 10 0 0 0 0 0 0 0 81 255 1 2 138 11 1 12 0 0 0 13 0 70 11 CI9 list_type0 0 1 u
I10 notransmit0 0 1 lCCCDCCDI12 finger_index0 0 1 dI12 finger_block1012 0 CZ3 0
 4 T1 0 0 5 20 1 14 14 0 13 255 4 91 0 1 0 15 0 0 16 0 0 51 255 5 90 0 15 17 0 0
 --1.732050807568875 -189326617253043e-46 .25 0 0 -1 3 -1 0 0 0 30 255 6 86 0 18
 19 0 0 +.866025403784438 -1.5 .25 0 0 -1 0 29 255 7 67 0 20 21 0 -2220446049250
315e-31 -1 0 0 19 8 CCCCCCCA5 owner12 0 Z8 1 0 1 16 0 22 V0 0 16 255 9 73 23 ?24
 0 25 19 0 0 1 0 18 255 10 15 0 26 0 27 28 ?1 0 17 255 26 0 29 30 31 10 32 33 0
 34 +0 18 27 10 0 31 10 35 36 ?1 0 29 28 17 0 10 36 37 -2220446049250315e-31 -1
 .25 0 29 36 12 0 27 38 28 1110223024625156e-31 1 .25 0 29 37 70 0 39 28 40 .866
025403784438 -1.5 0 0 18 39 60 0 41 42 0 37 ?1 0 29 40 69 0 42 37 21 .8660254037
84438 1.5 0 0 18 42 58 0 43 44 39 40 ?1 0 29 21 68 0 44 40 7 1110223024625156e-3
1 1 0 0 18 44 56 0 45 20 42 21 ?1 0 17 45 0 46 47 24 44 43 48 0 49 +0 18 20 54 0
 50 51 44 7 ?1 0 17 50 0 52 34 49 20 53 54 0 55 +0 18 51 2 0 30 35 20 56 ?1 0 17
 30 0 29 57 26 51 58 59 0 60 +0 18 35 5 0 61 27 51 38 ?1 0 29 56 4 0 51 0 38 .86
6025403784438 -1.5 .25 0 29 38 7 0 35 56 36 .866025403784438 1.5 .25 0 17 61 0 4
6 24 47 35 31 62 0 57 -0 15 255 46 79 0 45 63 0 0 17 24 0 46 45 61 42 64 9 0 65
 +0 17 47 0 46 61 45 27 49 25 0 32 -0 17 31 0 29 26 57 27 61 62 0 47 +0 16 62 11
 66 ?31 33 67 68 0 0 1 0 17 57 0 29 31 30 35 69 67 0 64 +0 15 29 23 0 57 70 0 0
 17 69 0 71 72 64 51 57 67 0 0 -0 16 67 6 73 ?57 62 74 75 0 0 1 0 17 64 0 71 69
 65 35 24 9 0 0 -0 15 71 81 0 65 15 0 0 17 65 0 71 64 72 42 76 77 0 0 +0 17 72 0
 71 65 69 39 60 18 0 76 +0 17 76 0 78 79 43 39 65 77 0 0 -0 16 77 52 80 ?65 48 0
 81 0 0 1 0 81 1 80 119 82 77 0 0 83 23 84 0 16 48 50 83 ?45 54 77 85 0 0 1 0 31
 255 81 66 0 77 86 85 0 +-1.732050807568875 -189326617253043e-46 0 0 0 1 1 0 0 3
 0 30 86 22 0 59 87 81 0 +113686837721616e-30 -1 .25 .866025403784439 -.5 0 0 30
 85 65 0 48 81 88 0 +.866025403784438 1.5 0 -.866025403784439 -.5 0 0 31 88 64 0
 54 85 89 0 +-1.732050807568875 -246519032881566e-46 0 0 0 -1 1 1224646799147352
e-31 0 2 0 16 54 48 90 ?50 74 48 88 0 0 1 0 30 89 63 0 74 88 91 0 +1136868377216
16e-30 -1 0 .866025403784439 -.5 0 0 16 74 46 92 ?41 67 54 89 0 0 1 0 30 91 83 0
 93 89 94 0 +-2220446049250315e-31 -1 .25 0 0 -1 0 16 93 71 95 ?55 25 18 91 0 0
 1 0 30 94 84 0 25 91 19 0 +1110223024625156e-31 1 .25 0 0 -1 0 16 25 72 96 ?49
 9 93 94 0 0 1 0 30 19 85 0 9 94 6 0 +.866025403784438 1.5 .25 0 0 -1 0 81 1 96
 116 82 25 0 0 73 90 97 0 17 49 0 52 50 32 44 47 25 0 53 +0 15 52 77 0 50 98 0 0
 17 32 0 52 49 34 27 26 33 0 0 -0 17 53 0 78 43 79 44 50 54 0 0 -0 15 78 45 0 76
 99 0 0 17 43 0 78 76 53 42 45 48 0 24 -0 17 79 0 78 53 76 20 41 74 0 0 -0 17 41
 0 100 60 55 39 79 74 0 72 +0 15 100 75 0 41 101 0 0 17 60 0 100 58 41 51 72 18
 0 69 -0 17 55 0 100 41 58 20 34 93 0 79 +0 17 58 0 100 55 60 10 30 59 0 0 -0 17
 34 0 52 32 50 10 55 93 0 58 -0 16 59 20 102 ?30 18 33 86 0 0 1 0 81 1 102 121 8
2 59 0 0 23 103 104 0 16 18 74 105 ?72 93 59 6 0 0 1 0 16 33 16 103 ?26 59 62 87
 0 0 1 0 81 1 103 122 82 33 0 0 102 66 106 0 31 87 19 0 33 68 86 0 +-1.732050807
568875 -246519032881566e-46 .25 0 0 -1 1 1224646799147352e-31 0 2 0 30 68 14 0 6
2 75 87 0 +.866025403784438 1.5 .25 -.866025403784439 -.5 0 0 31 75 9 0 67 0 68
 0 +-1.732050807568875 -189326617253043e-46 .25 0 0 1 1 0 0 3 0 80 255 1 82 107
 108 9000 1 1 1 1 1 1 1 1 0 FFFFTFTFFFFFFF3 0 81 1 66 123 82 62 0 0 103 109 110
 0 84 255 32 106 1979b7a2605993852fb01a91b2608bec0 81 1 109 124 82 99 0 111 66 1
12 113 0 84 32 110 4488ebc30c3cd825d75b688a718880800 14 255 99 42 111 ?0 70 78 4
 114 -0 0 0 70 22 0 81 1 111 137 115 99 109 0 116 0 117 0 81 1 112 125 82 98 0 1
18 109 119 120 0 84 32 113 5b34f4447372ef9c84451d26d1b525cd0 14 98 78 118 ?101 6
3 52 4 121 -0 0 101 63 22 0 81 1 118 134 115 98 112 0 122 123 124 0 81 1 119 126
 82 101 0 123 112 125 126 0 84 32 120 779014e2774ba64970c780c3f704e1f10 14 101 7
6 123 ?70 98 100 4 127 -0 0 70 98 22 0 81 1 123 135 115 101 119 0 118 116 128 0
 81 1 125 127 82 15 0 129 119 130 131 0 84 32 126 3f44ea9671a7bc386f4585ecee2f9e
520 14 15 82 129 ?63 0 71 4 5 -0 0 63 0 22 0 81 1 129 132 115 15 125 0 0 122 132
 0 81 1 130 128 82 70 0 116 125 133 134 0 84 32 131 4d779aba753cb6fe8ba1446ee92c
d5370 14 70 24 116 ?99 101 29 4 135 +0 0 99 101 22 0 81 1 116 136 115 70 130 0 1
23 111 136 0 81 1 133 129 82 63 0 122 130 0 137 0 84 32 134 40a7aec123aefeecd8ef
ff684decb3670 14 63 80 122 ?98 15 46 4 17 -0 0 98 15 22 0 81 1 122 133 115 63 13
3 0 129 118 138 0 84 32 137 2fed2d37306471349b2fcfe15e94a11e0 80 1 115 0 139 800
1 0 0 0 0 3 5 0 0 0 FFFFTFTFFFFFFF2 0 83 255 3 138 .5960784 .6666667 .6862745 0
 79 255 15 139 SDL/TYSA_COLOUR0 50 255 17 89 0 63 121 5 0 +.866025403784438 1.5
 .25 .5 -.866025403784439 0 .866025403784439 .5 0 0 13 22 3 0 0 0 0 0 0 8 15 0 5
1 121 88 0 98 127 17 0 +-1.732050807568875 -246519032881566e-46 .25 0 0 -1 2 -1
 0 0 0 50 127 87 0 101 114 121 0 +113686837721616e-30 -1 .25 .5 .866025403784439
 0 -.866025403784439 .5 0 0 50 114 62 0 99 135 127 0 +-1.732050807568875 -189326
617253043e-46 0 0 0 1 1 0 0 0 50 135 25 0 70 0 114 0 +-1.732050807568875 -189326
617253043e-46 .25 0 0 1 1 0 0 0 83 3 136 .5960784 .6666667 .6862745 0 83 3 132 .
5960784 .6666667 .6862745 0 83 3 128 .5960784 .6666667 .6862745 0 83 3 124 .5960
784 .6666667 .6862745 0 83 3 117 .5960784 .6666667 .6862745 0 79 15 108 UGS/Obje
ctState0 81 1 105 112 82 18 0 0 0 92 140 0 81 1 92 113 82 74 0 0 105 95 141 0 84
 32 140 64e881252a70fc6b8be6c07b92ed4a250 81 1 95 114 82 93 0 0 92 73 142 0 84 3
2 141 f1c597c7bd16db804f1264bf14e780050 81 1 73 115 82 67 0 0 95 96 143 0 84 32
 142 68d21c565c71d837345255820576c1e90 84 32 143 aa54a3a7593aad316055b2c0bfdd505
c0 81 1 23 120 82 9 0 0 80 102 144 0 84 32 104 13a5cac68014e18232e394c16bed92640
 84 32 144 7cb5a7434dc7abb46daa425ace017cf80 81 1 90 117 82 54 0 0 96 83 145 0 8
4 32 97 780e30d1a5cfac017fd4909b8b21b2b90 81 1 83 118 82 48 0 0 90 80 146 0 84 3
2 145 e312154222d0bf593e84c357875f91d00 84 32 146 ad5ba98591e37d984c41617a1c2668
c00 84 32 84 e32fc9736ade36d0a041f3268b4995a50 19 16 92 0 1 0 8 4 S0 0 74 4 CI16
 index_map_offset0 0 1 dCCZ20 14 5 0 0 133 147 12 111 2 0 0 0 0 0 0 0 0 0 0 0 0
 0 0 0 0 81 2 147 130 148 1 0 12 0 0 149 150 0 81 1 12 131 151 1 147 2 0 0 152 0
 80 1 151 82 153 9000 0 0 0 0 3 5 0 0 0 FFTFFFFFFFFFFF1 0 82 255 1 152 8 0 79 7
 153 body_id0 80 2 148 154 155 8004 0 0 0 0 3 5 0 0 0 FFTFFFFFFFFFFF2 3 0 83 1 1
49 7830.64 0 84 8 150 Kg/Cu M 0 79 16 155 SDL/TYSA_DENSITY0 80 1 11 151 156 9000
 0 0 0 0 3 5 0 0 0 FFTFFFFFFFFFFF1 0 82 1 13 129 0 79 24 156 UG2/BODY_COLOR_ATTR
IBUTE0 1 0 
